<svg xmlns="http://www.w3.org/2000/svg" xmlns:xlink="http://www.w3.org/1999/xlink" width="1080" zoomAndPan="magnify" viewBox="0 0 810 809.999993" height="1080" preserveAspectRatio="xMidYMid meet" version="1.0"><defs><g/><clipPath id="2e6b491c75"><path d="M 492.347656 243 L 787 243 L 787 567 L 492.347656 567 Z M 492.347656 243 " clip-rule="nonzero"/></clipPath></defs><rect x="-81" width="972" fill="#ffffff" y="-80.999999" height="971.999992" fill-opacity="1"/><rect x="-81" width="972" fill="#ffffff" y="-80.999999" height="971.999992" fill-opacity="1"/><rect x="-81" width="972" fill="#8b65bf" y="-80.999999" height="971.999992" fill-opacity="1"/><g fill="#ffffff" fill-opacity="1"><g transform="translate(5.813064, 542.00951)"><g><path d="M 130.484375 -96.03125 C 123.617188 -76.4375 116.691406 -57.65625 109.703125 -39.6875 C 102.710938 -21.71875 96.910156 -8.054688 92.296875 1.296875 C 87.679688 10.660156 83.625 17.085938 80.125 20.578125 C 76.632812 24.078125 73.078125 26.453125 69.453125 27.703125 C 65.835938 28.953125 62.21875 29.453125 58.59375 29.203125 C 54.976562 28.953125 51.296875 28.703125 47.546875 28.453125 C 26.578125 25.210938 20.085938 10.113281 28.078125 -16.84375 C 33.316406 -38.3125 37.554688 -55.847656 40.796875 -69.453125 C 44.046875 -83.054688 46.734375 -94.285156 48.859375 -103.140625 C 50.984375 -112.003906 52.789062 -119.367188 54.28125 -125.234375 C 55.78125 -131.109375 57.40625 -136.914062 59.15625 -142.65625 C 60.90625 -148.394531 63.085938 -154.882812 65.703125 -162.125 C 68.328125 -169.363281 71.757812 -178.972656 76 -190.953125 C 66.519531 -189.703125 58.035156 -190.703125 50.546875 -193.953125 C 39.566406 -198.691406 35.070312 -208.925781 37.0625 -224.65625 C 38.0625 -231.894531 41.929688 -238.632812 48.671875 -244.875 C 52.171875 -248.113281 56.289062 -251.609375 61.03125 -255.359375 C 70.769531 -263.097656 90.113281 -271.332031 119.0625 -280.0625 C 149.019531 -289.050781 174.734375 -293.296875 196.203125 -292.796875 C 201.941406 -293.796875 207.867188 -293.109375 213.984375 -290.734375 C 220.097656 -288.367188 225.023438 -285.1875 228.765625 -281.1875 C 232.515625 -277.195312 234.453125 -272.828125 234.578125 -268.078125 C 234.703125 -263.335938 231.644531 -259.097656 225.40625 -255.359375 C 222.40625 -253.359375 220.28125 -250.046875 219.03125 -245.421875 C 217.789062 -240.804688 216.421875 -235.941406 214.921875 -230.828125 C 213.421875 -225.710938 211.234375 -221.03125 208.359375 -216.78125 C 205.492188 -212.539062 200.941406 -210.046875 194.703125 -209.296875 C 191.453125 -207.554688 186.894531 -206.3125 181.03125 -205.5625 C 175.164062 -204.8125 171.296875 -204.25 169.421875 -203.875 C 167.554688 -203.5 166.5 -202.8125 166.25 -201.8125 C 161.75 -188.582031 156.378906 -172.546875 150.140625 -153.703125 C 143.898438 -134.859375 137.347656 -115.632812 130.484375 -96.03125 Z M 79.75 -195.078125 C 79.25 -195.078125 79 -195.015625 79 -194.890625 C 79 -194.765625 79.25 -194.703125 79.75 -194.703125 Z M 79.75 -195.078125 "/></g></g></g><g fill="#ffffff" fill-opacity="1"><g transform="translate(193.769069, 542.00951)"><g><path d="M 147.140625 -273.328125 C 149.640625 -266.585938 151.015625 -262.09375 151.265625 -259.84375 C 151.765625 -255.101562 150.019531 -251.113281 146.03125 -247.875 C 146.03125 -247.625 145.78125 -247.25 145.28125 -246.75 C 147.519531 -235.007812 148.015625 -224.019531 146.765625 -213.78125 C 145.523438 -203.550781 143.90625 -193.695312 141.90625 -184.21875 C 155.382812 -207.175781 166.117188 -224.023438 174.109375 -234.765625 C 190.578125 -256.984375 205.925781 -272.832031 220.15625 -282.3125 C 224.90625 -285.0625 230.710938 -287.117188 237.578125 -288.484375 C 244.441406 -289.859375 250.992188 -290.046875 257.234375 -289.046875 C 263.472656 -288.054688 268.648438 -285.5625 272.765625 -281.5625 C 276.878906 -277.570312 278.691406 -271.582031 278.203125 -263.59375 C 271.210938 -214.914062 263.722656 -169.546875 255.734375 -127.484375 C 247.742188 -85.429688 237.382812 -45.304688 224.65625 -7.109375 L 224.65625 -6.359375 L 224.28125 -6.359375 C 221.28125 2.617188 213.789062 8.984375 201.8125 12.734375 C 190.082031 16.222656 179.597656 16.472656 170.359375 13.484375 C 159.128906 10.234375 154.015625 4.238281 155.015625 -4.5 L 155.390625 -13.109375 L 155.390625 -13.859375 C 156.390625 -19.847656 156.945312 -23.898438 157.0625 -26.015625 C 157.1875 -28.140625 157.375 -29.703125 157.625 -30.703125 C 158.125 -37.191406 159.1875 -43.242188 160.8125 -48.859375 C 162.4375 -54.472656 163.625 -59.023438 164.375 -62.515625 C 165.125 -66.015625 165.867188 -69.320312 166.609375 -72.4375 C 167.359375 -75.5625 167.859375 -78 168.109375 -79.75 C 158.628906 -66.769531 151.890625 -58.90625 147.890625 -56.15625 C 137.910156 -49.164062 126.304688 -45.921875 113.078125 -46.421875 C 104.835938 -46.921875 100.09375 -48.796875 98.84375 -52.046875 C 96.351562 -59.035156 94.609375 -63.15625 93.609375 -64.40625 C 92.109375 -66.394531 90.859375 -69.765625 89.859375 -74.515625 C 83.367188 -45.804688 77.003906 -25.460938 70.765625 -13.484375 C 68.265625 -8.734375 65.769531 -4.488281 63.28125 -0.75 C 59.78125 7.488281 51.789062 13.226562 39.3125 16.46875 C 27.582031 19.71875 16.347656 19.46875 5.609375 15.71875 C -5.367188 12.226562 -10.609375 5.992188 -10.109375 -2.984375 C -9.609375 -11.972656 -7.796875 -23.269531 -4.671875 -36.875 C -1.554688 -50.476562 2.117188 -64.894531 6.359375 -80.125 C 19.097656 -128.300781 28.148438 -159.628906 33.515625 -174.109375 C 38.878906 -188.585938 43.429688 -199.941406 47.171875 -208.171875 C 56.160156 -227.398438 64.148438 -241.378906 71.140625 -250.109375 C 78.878906 -265.835938 91.734375 -275.320312 109.703125 -278.5625 C 123.929688 -281.3125 136.410156 -279.566406 147.140625 -273.328125 Z M 147.140625 -273.328125 "/></g></g></g><g clip-path="url(#2e6b491c75)"><path fill="#ffffff" d="M 537.25 565.199219 C 516.53125 559.511719 499.5625 542.195312 494.238281 521.304688 C 491.792969 511.71875 491.796875 338.867188 494.242188 329.300781 C 498.472656 312.734375 510.4375 297.679688 525.601562 289.832031 L 533.378906 285.804688 L 533.378906 271.996094 C 533.378906 257.0625 534.121094 253.777344 538.546875 249.105469 C 542.839844 244.570312 546.550781 243.035156 553.230469 243.035156 C 559.90625 243.035156 563.621094 244.570312 567.914062 249.105469 C 572.265625 253.703125 573.078125 257.058594 573.078125 270.445312 L 573.078125 282.707031 L 618.996094 282.707031 L 619.371094 269.492188 C 619.726562 257.191406 619.957031 255.96875 622.703125 251.824219 C 630.519531 240.023438 648.679688 240.023438 656.5 251.824219 C 659.246094 255.96875 659.476562 257.191406 659.828125 269.492188 L 660.207031 282.707031 L 706.121094 282.707031 L 706.121094 270.445312 C 706.121094 257.058594 706.933594 253.703125 711.289062 249.105469 C 715.578125 244.570312 719.292969 243.035156 725.972656 243.035156 C 732.648438 243.035156 736.363281 244.570312 740.65625 249.105469 C 745.078125 253.777344 745.820312 257.0625 745.820312 271.996094 L 745.820312 285.804688 L 753.601562 289.867188 C 768.714844 297.761719 780.796875 312.953125 784.964844 329.300781 C 787.402344 338.875 787.402344 511.730469 784.964844 521.304688 C 779.574219 542.449219 762.5625 559.640625 741.480469 565.246094 C 733.148438 567.464844 545.34375 567.417969 537.25 565.199219 Z M 736.175781 523.78125 C 739.15625 522.027344 742.042969 519.148438 743.6875 516.273438 L 746.359375 511.613281 L 746.359375 338.828125 L 743.140625 333.648438 C 741.136719 330.421875 738.296875 327.621094 735.628906 326.226562 C 731.371094 324.003906 730.578125 323.984375 639.601562 323.984375 C 551.164062 323.984375 547.714844 324.058594 543.695312 326.050781 C 541.1875 327.296875 538.304688 330.046875 536.453125 332.960938 L 533.378906 337.804688 L 533.378906 512.394531 L 535.753906 516.613281 C 538.167969 520.902344 542.847656 524.488281 548.148438 526.105469 C 549.761719 526.597656 591.640625 526.914062 641.210938 526.8125 L 731.335938 526.625 Z M 614.917969 474.695312 C 608.691406 472.800781 604.085938 469.355469 592.035156 457.578125 C 577.171875 443.050781 573.90625 438.207031 573.90625 430.703125 C 573.90625 419.644531 581.492188 411.289062 592.234375 410.511719 C 600.5625 409.910156 603.605469 411.5625 615.1875 422.976562 L 624.574219 432.222656 L 650.058594 406.875 C 672.09375 384.957031 676.171875 381.363281 680.195312 380.300781 C 692.238281 377.113281 705.128906 386.628906 705.3125 398.835938 C 705.453125 408.097656 704.480469 409.34375 672.042969 441.558594 C 644.960938 468.453125 640.566406 472.390625 635.921875 473.9375 C 630.480469 475.746094 619.664062 476.136719 614.917969 474.695312 Z M 614.917969 474.695312 " fill-opacity="1" fill-rule="nonzero"/></g></svg>